<svg xmlns="http://www.w3.org/2000/svg" width="242" height="278" viewBox="0 0 242 278"><path d="M121 .5a120.49 120.49 0 0 0-35 235.79s-7.29 31-21.45 41.17c24.67 1.5 52.33-36.07 52.33-36.07h-.05c1.4 0 2.81.08 4.22.08A120.48 120.48 0 1 0 121 .5z" fill="#fff" stroke="#d6d0c5"/><path d="M111.73 153.17H97.86l-19.78-47.42-8.25 47.42H55.52l12.36-71.1H81.7l19.82 47.51 8.25-47.51h14.26l-12.3 71.1zm61.59-40.6a20.22 20.22 0 0 0-7.42-9.62 21.2 21.2 0 0 0-12-3.59 24.24 24.24 0 0 0-18.65 7.42q-7.62 7.72-8.89 20.8a29.1 29.1 0 0 0 1.64 13.48 20.13 20.13 0 0 0 7.42 9.55 21.13 21.13 0 0 0 11.91 3.54 24.75 24.75 0 0 0 18.87-7.59q7.64-7.79 8.76-20.39a29.78 29.78 0 0 0-1.64-13.6zM158 136.94q-3.61 6-10 5.83a7.3 7.3 0 0 1-5.91-2.8 12.18 12.18 0 0 1-2.2-7.39q-.29-10.09 3.39-16.06t9.84-5.78a7.18 7.18 0 0 1 5.93 2.9 13.27 13.27 0 0 1 2.27 7.48q.31 9.8-3.32 15.82zm30.58 1.68a7.63 7.63 0 0 1 5.59 2 6.94 6.94 0 0 1 2.32 5.35 7.2 7.2 0 0 1-2.15 5.49 8.27 8.27 0 0 1-11 .32 7.18 7.18 0 0 1-2.34-5.32 7.26 7.26 0 0 1 2.1-5.52 7.74 7.74 0 0 1 5.48-2.32z"/></svg>