<svg xmlns="http://www.w3.org/2000/svg" viewBox="0 0 512 512"><circle cx="256" cy="256" r="256" fill="#fff"/><path d="M237.4 328.41h-29.34l-41.85-100.33-17.45 100.33h-30.28L144.63 178h29.24l41.93 100.5L233.26 178h30.17l-26 150.43zm130.31-85.9A42.78 42.78 0 0 0 352 222.15a44.85 44.85 0 0 0-25.39-7.6 51.28 51.28 0 0 0-39.46 15.7q-16.12 16.33-18.81 44a61.57 61.57 0 0 0 3.47 28.52 42.59 42.59 0 0 0 15.7 20.2 44.7 44.7 0 0 0 25.2 7.49 52.36 52.36 0 0 0 39.92-16.06q16.16-16.48 18.53-43.14a63 63 0 0 0-3.47-28.77zm-32.41 51.56q-7.64 12.69-21.16 12.33a15.44 15.44 0 0 1-12.5-5.92 25.77 25.77 0 0 1-4.64-15.64q-.61-21.35 7.17-34t20.83-12.2a15.19 15.19 0 0 1 12.55 6.14 28.08 28.08 0 0 1 4.8 15.83q.66 20.73-7 33.47zm64.7 3.55a16.14 16.14 0 0 1 11.83 4.23 14.68 14.68 0 0 1 4.91 11.32 15.23 15.23 0 0 1-4.55 11.62 17.5 17.5 0 0 1-23.27.68 15.19 15.19 0 0 1-5-11.26 15.36 15.36 0 0 1 4.44-11.68 16.38 16.38 0 0 1 11.64-4.91z"/></svg>